<svg width="25" height="24" viewBox="0 0 25 24" fill="none" xmlns="http://www.w3.org/2000/svg">
<path d="M12.0714 1.71429C17.7286 1.71429 22.3571 6.34286 22.3571 12C22.3571 17.6571 17.7286 22.2857 12.0714 22.2857C6.41427 22.2857 1.7857 17.6571 1.7857 12C1.7857 6.34286 6.41427 1.71429 12.0714 1.71429ZM12.0714 0C5.47141 0 0.0714111 5.4 0.0714111 12C0.0714111 18.6 5.47141 24 12.0714 24C18.6714 24 24.0714 18.6 24.0714 12C24.0714 5.4 18.6714 0 12.0714 0Z" fill="#FFAA04"/>
<path d="M18.9286 11.1429H12.9286V5.14288H11.2143V11.1429H5.21427V12.8572H11.2143V18.8572H12.9286V12.8572H18.9286V11.1429Z" fill="#FFAA04"/>
</svg>
