<svg width="23" height="24" viewBox="0 0 23 24" fill="none" xmlns="http://www.w3.org/2000/svg">
<path d="M10.0715 3.42857H13.5C13.5 2.97391 13.3194 2.53788 12.9979 2.21639C12.6764 1.8949 12.2404 1.71429 11.7857 1.71429C11.3311 1.71429 10.895 1.8949 10.5736 2.21639C10.2521 2.53788 10.0715 2.97391 10.0715 3.42857ZM8.35717 3.42857C8.35717 2.51926 8.71839 1.64719 9.36137 1.00421C10.0044 0.361224 10.8764 0 11.7857 0C12.6951 0 13.5671 0.361224 14.2101 1.00421C14.8531 1.64719 15.2143 2.51926 15.2143 3.42857H22.0715C22.2988 3.42857 22.5168 3.51888 22.6775 3.67962C22.8383 3.84037 22.9286 4.05839 22.9286 4.28571C22.9286 4.51304 22.8383 4.73106 22.6775 4.89181C22.5168 5.05255 22.2988 5.14286 22.0715 5.14286H21.1046L19.0389 20.2937C18.8988 21.3205 18.3914 22.2617 17.6107 22.9431C16.83 23.6245 15.8289 24 14.7926 24H8.77888C7.74263 24 6.74147 23.6245 5.96077 22.9431C5.18007 22.2617 4.6727 21.3205 4.5326 20.2937L2.46688 5.14286H1.50003C1.2727 5.14286 1.05468 5.05255 0.893935 4.89181C0.733189 4.73106 0.642883 4.51304 0.642883 4.28571C0.642883 4.05839 0.733189 3.84037 0.893935 3.67962C1.05468 3.51888 1.2727 3.42857 1.50003 3.42857H8.35717ZM10.0715 9.42857C10.0715 9.20124 9.98115 8.98323 9.8204 8.82248C9.65966 8.66173 9.44164 8.57143 9.21431 8.57143C8.98698 8.57143 8.76897 8.66173 8.60822 8.82248C8.44747 8.98323 8.35717 9.20124 8.35717 9.42857V18C8.35717 18.2273 8.44747 18.4453 8.60822 18.6061C8.76897 18.7668 8.98698 18.8571 9.21431 18.8571C9.44164 18.8571 9.65966 18.7668 9.8204 18.6061C9.98115 18.4453 10.0715 18.2273 10.0715 18V9.42857ZM14.3572 8.57143C14.5845 8.57143 14.8025 8.66173 14.9633 8.82248C15.124 8.98323 15.2143 9.20124 15.2143 9.42857V18C15.2143 18.2273 15.124 18.4453 14.9633 18.6061C14.8025 18.7668 14.5845 18.8571 14.3572 18.8571C14.1298 18.8571 13.9118 18.7668 13.7511 18.6061C13.5903 18.4453 13.5 18.2273 13.5 18V9.42857C13.5 9.20124 13.5903 8.98323 13.7511 8.82248C13.9118 8.66173 14.1298 8.57143 14.3572 8.57143ZM6.23146 20.0623C6.31558 20.6782 6.61999 21.2428 7.08833 21.6516C7.55667 22.0604 8.15724 22.2856 8.77888 22.2857H14.7926C15.4145 22.286 16.0155 22.061 16.4842 21.6521C16.9529 21.2433 17.2576 20.6785 17.3417 20.0623L19.3749 5.14286H4.1966L6.23146 20.0623Z" fill="#FF0606"/>
</svg>
