<svg width="20" height="20" viewBox="0 0 20 20" fill="none" xmlns="http://www.w3.org/2000/svg">
<path fill-rule="evenodd" clip-rule="evenodd" d="M18.7499 10C18.7499 7.67935 17.8281 5.45376 16.1871 3.81282C14.5462 2.17187 12.3206 1.25 9.99994 1.25C7.67929 1.25 5.4537 2.17187 3.81276 3.81282C2.17181 5.45376 1.24994 7.67936 1.24994 10C1.24994 12.3206 2.17181 14.5462 3.81276 16.1872C5.4537 17.8281 7.6793 18.75 9.99994 18.75C12.3206 18.75 14.5462 17.8281 16.1871 16.1872C17.8281 14.5462 18.7499 12.3206 18.7499 10ZM-6.0002e-05 10C-6.02339e-05 7.34784 1.05351 4.8043 2.92887 2.92893C4.80423 1.05357 7.34777 -8.01261e-07 9.99994 -1.03312e-06C12.6521 -1.26498e-06 15.1956 1.05357 17.071 2.92893C18.9464 4.80429 19.9999 7.34783 19.9999 10C19.9999 12.6522 18.9464 15.1957 17.071 17.0711C15.1956 18.9464 12.6521 20 9.99994 20C7.34778 20 4.80424 18.9464 2.92887 17.0711C1.05351 15.1957 -5.97702e-05 12.6522 -6.0002e-05 10ZM9.37494 5.625C9.37494 5.45924 9.44079 5.30027 9.558 5.18306C9.67521 5.06585 9.83418 5 9.99994 5C10.1657 5 10.3247 5.06585 10.4419 5.18306C10.5591 5.30027 10.6249 5.45924 10.6249 5.625L10.6249 12.8663L13.3074 10.1825C13.4248 10.0651 13.584 9.99921 13.7499 9.99921C13.9159 9.99921 14.0751 10.0651 14.1924 10.1825C14.3098 10.2999 14.3757 10.459 14.3757 10.625C14.3757 10.791 14.3098 10.9501 14.1924 11.0675L10.4424 14.8175C10.3844 14.8757 10.3154 14.9219 10.2395 14.9534C10.1635 14.9849 10.0821 15.0011 9.99994 15.0011C9.91773 15.0011 9.83633 14.9849 9.7604 14.9534C9.68447 14.9219 9.6155 14.8757 9.55744 14.8175L5.80744 11.0675C5.69008 10.9501 5.62415 10.791 5.62415 10.625C5.62415 10.459 5.69008 10.2999 5.80744 10.1825C5.9248 10.0651 6.08397 9.99921 6.24994 9.99921C6.41591 9.99921 6.57508 10.0651 6.69244 10.1825L9.37494 12.8663L9.37494 5.625Z" fill="#0C0D1C"/>
</svg>
