<svg width="25" height="19" viewBox="0 0 25 19" fill="none" xmlns="http://www.w3.org/2000/svg">
<path d="M24.6834 10.2307C21.9986 15.8862 17.9403 18.7324 12.5 18.7324C7.05685 18.7324 3.00138 15.8862 0.316613 10.2278C0.208926 9.99981 0.153076 9.75076 0.153076 9.49858C0.153076 9.24641 0.208926 8.99736 0.316613 8.76934C3.00138 3.11377 7.05968 0.267578 12.5 0.267578C17.9432 0.267578 21.9986 3.11377 24.6834 8.77217C24.9015 9.23096 24.9015 9.76338 24.6834 10.2307ZM12.5 2.30664C7.93194 2.30664 4.58732 4.62324 2.22823 9.5C4.58732 14.3768 7.93194 16.6934 12.5 16.6934C17.0681 16.6934 20.4127 14.3768 22.7718 9.5C20.4155 4.62324 17.0709 2.30664 12.5 2.30664ZM12.3867 14.4844C9.634 14.4844 7.40235 12.2527 7.40235 9.5C7.40235 6.74727 9.634 4.51562 12.3867 4.51562C15.1395 4.51562 17.3711 6.74727 17.3711 9.5C17.3711 12.2527 15.1395 14.4844 12.3867 14.4844ZM12.3867 6.32812C10.6337 6.32812 9.21485 7.74697 9.21485 9.5C9.21485 11.253 10.6337 12.6719 12.3867 12.6719C14.1398 12.6719 15.5586 11.253 15.5586 9.5C15.5586 7.74697 14.1398 6.32812 12.3867 6.32812Z" fill="white"/>
</svg>
