<svg width="20" height="20" viewBox="0 0 20 20" fill="none" xmlns="http://www.w3.org/2000/svg">
<path d="M11.164 10.1754L14.1482 7.19122C14.2488 7.07376 14.3013 6.92266 14.2954 6.76812C14.2894 6.61358 14.2253 6.46699 14.116 6.35763C14.0066 6.24828 13.86 6.18421 13.7055 6.17824C13.551 6.17227 13.3999 6.22484 13.2824 6.32543L10.2982 9.27894L7.29555 6.27631C7.17809 6.17572 7.02699 6.12315 6.87245 6.12912C6.71791 6.13509 6.57132 6.19915 6.46196 6.30851C6.35261 6.41787 6.28854 6.56446 6.28257 6.719C6.2766 6.87354 6.32917 7.02463 6.42976 7.1421L9.42625 10.1754L6.49117 13.0737C6.42689 13.1287 6.37468 13.1965 6.33783 13.2726C6.30097 13.3488 6.28026 13.4318 6.27699 13.5164C6.27373 13.6009 6.28798 13.6853 6.31885 13.7641C6.34972 13.8428 6.39654 13.9144 6.45638 13.9743C6.51622 14.0341 6.58779 14.0809 6.66658 14.1118C6.74538 14.1427 6.82971 14.1569 6.91427 14.1536C6.99883 14.1504 7.08181 14.1297 7.15799 14.0928C7.23417 14.056 7.30191 14.0037 7.35696 13.9395L10.2859 11.0105L13.1964 13.921C13.3139 14.0216 13.465 14.0742 13.6195 14.0682C13.7741 14.0623 13.9207 13.9982 14.03 13.8888C14.1394 13.7795 14.2034 13.6329 14.2094 13.4784C14.2154 13.3238 14.1628 13.1727 14.0622 13.0553L11.164 10.1754Z" fill="#C01616"/>
<path d="M10.1754 20C8.23231 20 6.33283 19.4238 4.71719 18.3443C3.10155 17.2647 1.84231 15.7304 1.09872 13.9352C0.355117 12.1399 0.160558 10.1646 0.539641 8.25878C0.918724 6.353 1.85442 4.60243 3.22841 3.22844C4.6024 1.85445 6.35297 0.918755 8.25875 0.539672C10.1645 0.160589 12.1399 0.355148 13.9351 1.09875C15.7303 1.84234 17.2647 3.10158 18.3443 4.71722C19.4238 6.33286 20 8.23234 20 10.1755C20 12.7811 18.9649 15.28 17.1224 17.1225C15.28 18.9649 12.7811 20 10.1754 20ZM10.1754 1.57897C8.4752 1.57897 6.81316 2.08314 5.39947 3.02774C3.98579 3.97233 2.88395 5.31492 2.2333 6.88572C1.58266 8.45653 1.41242 10.185 1.74411 11.8525C2.07581 13.5201 2.89455 15.0519 4.09679 16.2541C5.29903 17.4563 6.83078 18.2751 8.49833 18.6068C10.1659 18.9385 11.8944 18.7682 13.4652 18.1176C15.036 17.4669 16.3786 16.3651 17.3231 14.9514C18.2677 13.5377 18.7719 11.8757 18.7719 10.1755C18.7719 7.89553 17.8662 5.70897 16.2541 4.09682C14.6419 2.48466 12.4554 1.57897 10.1754 1.57897Z" fill="#C01616"/>
</svg>
