<svg width="20" height="20" viewBox="0 0 20 20" fill="none" xmlns="http://www.w3.org/2000/svg">
<path fill-rule="evenodd" clip-rule="evenodd" d="M1.24994 10C1.24994 12.3206 2.17181 14.5462 3.81275 16.1872C5.4537 17.8281 7.67929 18.75 9.99994 18.75C12.3206 18.75 14.5462 17.8281 16.1871 16.1872C17.8281 14.5462 18.7499 12.3206 18.7499 10C18.7499 7.67936 17.8281 5.45376 16.1871 3.81282C14.5462 2.17187 12.3206 1.25 9.99994 1.25C7.67929 1.25 5.4537 2.17187 3.81275 3.81282C2.17181 5.45376 1.24994 7.67936 1.24994 10ZM19.9999 10C19.9999 12.6522 18.9464 15.1957 17.071 17.0711C15.1956 18.9464 12.6521 20 9.99994 20C7.34777 20 4.80423 18.9464 2.92887 17.0711C1.05351 15.1957 -6.10352e-05 12.6522 -6.10352e-05 10C-6.10352e-05 7.34784 1.05351 4.8043 2.92887 2.92893C4.80423 1.05357 7.34777 0 9.99994 0C12.6521 0 15.1956 1.05357 17.071 2.92893C18.9464 4.8043 19.9999 7.34784 19.9999 10ZM10.6249 14.375C10.6249 14.5408 10.5591 14.6997 10.4419 14.8169C10.3247 14.9342 10.1657 15 9.99994 15C9.83418 15 9.67521 14.9342 9.558 14.8169C9.44079 14.6997 9.37494 14.5408 9.37494 14.375V7.13375L6.69244 9.8175C6.57508 9.93486 6.41591 10.0008 6.24994 10.0008C6.08397 10.0008 5.9248 9.93486 5.80744 9.8175C5.69008 9.70014 5.62415 9.54097 5.62415 9.375C5.62415 9.20903 5.69008 9.04986 5.80744 8.9325L9.55744 5.1825C9.6155 5.1243 9.68447 5.07812 9.7604 5.04661C9.83633 5.0151 9.91773 4.99888 9.99994 4.99888C10.0821 4.99888 10.1635 5.0151 10.2395 5.04661C10.3154 5.07812 10.3844 5.1243 10.4424 5.1825L14.1924 8.9325C14.3098 9.04986 14.3757 9.20903 14.3757 9.375C14.3757 9.54097 14.3098 9.70014 14.1924 9.8175C14.0751 9.93486 13.9159 10.0008 13.7499 10.0008C13.584 10.0008 13.4248 9.93486 13.3074 9.8175L10.6249 7.13375V14.375Z" fill="#0C0D1C"/>
</svg>
